# AST/ASF file generated using VICON BodyLanguage
# -----------------------------------------------
:version 1.10
:name VICON
:units
  mass 1.0
  length 0.45
  angle deg
:documentation
   .ast/.asf automatically generated from VICON data using
   VICON BodyBuilder and BodyLanguage model FoxedUp or BRILLIANT.MOD
:root
   order TX TY TZ RX RY RZ
   axis XYZ
   position 0 0 0  
   orientation 0 0 0 
:bonedata
  begin
     id 1 
     name lhipjoint
     direction 0.650112 -0.723553 0.232005 
     length 2.45805 
     axis 0 0 0  XYZ
  end
  begin
     id 2 
     name lfemur
     direction 0.34202 -0.939693 0  
     length 7.00073  
     axis 0 0 20  XYZ
    dof rx ry rz
    limits (-160.0 20.0)
           (-70.0 70.0)
           (-60.0 70.0)
  end
  begin
     id 3 
     name ltibia
     direction 0.34202 -0.939693 0   
     length 7.8748   
     axis 0 0 20   XYZ
    dof rx
    limits (-10.0 170.0)
  end
  begin
     id 4 
     name lfoot
     direction 0.0542825 -0.14914 0.987325   
     length 1.75978   
     axis -90 7.62852e-016 20   XYZ
    dof rx rz
    limits (-45.0 90.0)
           (-70.0 20.0)
  end
  begin
     id 5 
     name ltoes
     direction 1.53509e-011 -4.21906e-011 1   
     length 0.893912   
     axis -90 7.62852e-016 20   XYZ
    dof rx
    limits (-90.0 20.0)
  end
  begin
     id 6 
     name rhipjoint
     direction -0.637897 -0.733345 0.235145   
     length 2.42522  
     axis 0 0 0  XYZ 
  end
  begin
     id 7 
     name rfemur
     direction -0.34202 -0.939693 0   
     length 7.02549   
     axis 0 0 -20   XYZ
    dof rx ry rz
    limits (-160.0 20.0)
           (-70.0 70.0)
           (-70.0 60.0)
  end
  begin
     id 8 
     name rtibia
     direction -0.34202 -0.939693 0   
     length 7.71512   
     axis 0 0 -20   XYZ
    dof rx
    limits (-10.0 170.0)
 end
 begin
     id 9 
     name rfoot
     direction -0.0822618 -0.226012 0.970645   
     length 1.90014  
     axis -90 -7.62852e-016 -20   XYZ
    dof rx rz
    limits (-45.0 90.0)
           (-20.0 70.0)
  end
  begin
     id 10 
     name rtoes
     direction -1.53542e-011 -4.21872e-011 1   
     length 0.957341   
     axis -90 -7.62852e-016 -20   XYZ
    dof rx
    limits (-90.0 20.0)
  end
  begin
     id 11 
     name lowerback
     direction -0.0022947 0.999774 -0.0211557   
     length 1.89909   
     axis 0 0 0   XYZ
    dof rx ry rz
    limits (-20.0 45.0)
           (-30.0 30.0)
           (-30.0 30.0)
  end
  begin
     id 12 
     name upperback
     direction 0.0107737 0.998635 0.0511027   
     length 1.8853   
     axis 0 0 0   XYZ
    dof rx ry rz
    limits (-20.0 45.0)
           (-30.0 30.0)
           (-30.0 30.0)
  end
  begin
     id 13 
     name thorax
     direction 0.011824 0.998136 0.0598754   
     length 1.88911   
     axis 0 0 0   XYZ
    dof rx ry rz
    limits (-20.0 45.0)
           (-30.0 30.0)
           (-30.0 30.0)
  end
  begin
     id 14 
     name lowerneck
     direction -0.0685355 0.990319 0.120714   
     length 1.91222   
     axis 0 0 0   XYZ
    dof rx ry rz
    limits (-20.0 45.0)
           (-30.0 30.0)
           (-30.0 30.0)
  end
  begin
     id 15 
     name upperneck
     direction 0.0886204 0.955665 -0.280805   
     length 1.92526   
     axis 0 0 0   XYZ
    dof rx ry rz
    limits (-20.0 45.0)
           (-30.0 30.0)
           (-30.0 30.0)
  end
  begin
     id 16
     name head
     direction 0.0233423 0.993502 -0.111393  
     length 1.96056  
     axis 0 0 0   XYZ
    dof rx ry rz
    limits (-20.0 45.0)
           (-30.0 30.0)
           (-30.0 30.0)
  end
  begin
     id 17 
     name lclavicle
     direction 0.941873 0.32922 0.0670041  
     length 3.31705  
     axis 0 0 0   XYZ
    dof ry rz
    limits (-20.0 10.0)
           (0.0 20.0)
  end
  begin
     id 18 
     name lhumerus
     direction 1 -4.4898e-011 3.38707e-028   
     length 5.29277   
     axis 180 -30 -90   XYZ
    dof rx ry rz
    limits (-60.0 90.0)
           (-90.0 90.0)
           (-90.0 90.0)
  end
  begin
     id 19
     name lradius
     direction 1 -4.48952e-011 1.63213e-028   
     length 2.85226   
     axis 180 -30 -90   XYZ
    dof rx
    limits (-10.0 170.0)
  end
  begin
     id 20
     name lwrist
     direction 1 -4.49001e-011 1.27856e-027   
     length 1.42613   
     axis -1.61767e-015 90 90   XYZ
    dof ry
    limits (-180.0 0.0)
 end
  begin
     id 21 
     name lhand
     direction 1 -4.48976e-011 2.55931e-027   
     length 0.602097   
     axis -1.63363e-015 90 90   XYZ
    dof rx rz
    limits (-90.0 90.0)
           (-45.0 45.0)
  end
  begin
     id 22 
     name lfingers
     direction 1 -4.48986e-011 5.11684e-027   
     length 0.485426   
     axis -3.26723e-015 90 90   XYZ
    dof rx
    limits (0.0 90.0)
  end
  begin
     id 23
     name lthumb
     direction 0.707107 -6.34915e-011 0.707107   
     length 0.696978   
     axis -90 45 -2.25915e-014   XYZ
    dof rx rz
    limits (-45.0 45.0)
           (-45.0 45.0)
  end
  begin
     id 24 
     name rclavicle
     direction -0.939974 0.327078 0.0973096   
     length 3.10337  
     axis 0 0 0   XYZ 
    dof ry rz
    limits (-10.0 20.0)
           (-20.0 0.0)
  end
  begin
     id 25 
     name rhumerus
     direction -1 -4.48975e-011 1.83745e-027  
     length 5.13304   
     axis 180 30 90   XYZ
    dof rx ry rz
    limits (-90.0 60.0)
           (-90.0 90.0)
           (-90.0 90.0)
  end
  begin
     id 26 
     name rradius
     direction -1 -4.48977e-011 7.1775e-029   
     length 2.74305   
     axis 180 30 90   XYZ
    dof rx
    limits (-10.0 170.0)
  end
  begin
     id 27 
     name rwrist
     direction -1 -4.48977e-011 1.27963e-027   
     length 1.37152   
     axis -1.61767e-015 -90 -90   XYZ
    dof ry
    limits (-180.0 0.0)
  end
  begin
     id 28
     name rhand
     direction -1 -4.4888e-011 2.56782e-027   
     length 0.767976   
     axis -1.63363e-015 -90 -90   XYZ
    dof rx rz
    limits (-90.0 90.0)
           (-45.0 45.0)
  end
  begin
     id 29
     name rfingers
     direction -1 -4.48947e-011 5.12384e-027   
     length 0.619162   
     axis -3.26723e-015 -90 -90   XYZ
    dof rx
    limits (0.0 90.0)
  end
  begin
     id 30
     name rthumb
     direction -0.707107 -6.34857e-011 0.707107   
     length 0.888997   
     axis -90 -45 2.25915e-014   XYZ
    dof rx rz
    limits (-45.0 45.0)
           (-45.0 45.0)
  end
:hierarchy
  begin
    root lhipjoint rhipjoint lowerback
    lhipjoint lfemur
    lfemur ltibia
    ltibia lfoot
    lfoot ltoes
    rhipjoint rfemur
    rfemur rtibia
    rtibia rfoot
    rfoot rtoes
    lowerback upperback
    upperback thorax
    thorax lowerneck lclavicle rclavicle
    lowerneck upperneck
    upperneck head
    lclavicle lhumerus
    lhumerus lradius
    lradius lwrist
    lwrist lhand lthumb
    lhand lfingers
    rclavicle rhumerus
    rhumerus rradius
    rradius rwrist
    rwrist rhand rthumb
    rhand rfingers
  end

#!OML:ASF F:\VICON\USERDATA\INSTALL\rory3\rory3.ASF
:FULLY-SPECIFIED
:DEGREES
353
root 0.173225 17.3714 0.326265 4.24888 4.4239 -0.335893
lowerback 1.48887 0.0457986 -0.384379
upperback -0.11971 0.0634048 0.95117
thorax -0.95844 0.0360886 1.18782
lowerneck -12.8738 -13.983 -18.9081
upperneck 14.285 -19.6876 20.8297
head 10.8686 -8.62212 7.33327
rclavicle 4.91992e-015 -1.98785e-014
rhumerus -31.4455 33.8194 -100.141
rradius 64.2688
rwrist 9.07207
rhand 11.9205 16.7506
rfingers 7.12502
rthumb 36.9455 -9.32797
lclavicle 4.91992e-015 -1.98785e-014
lhumerus -34.1379 -41.0709 108.309
lradius 88.0353
lwrist 12.4901
lhand 6.8284 23.5898
lfingers 7.12502
lthumb 32.1123 50.7731
rfemur -3.82653 9.86542 18.7392
rtibia 13.7022
rfoot -12.3737 -14.9334
rtoes -12.75
lfemur -9.85987 -15.6347 -16.7742
ltibia 20.4796
lfoot -14.3821 7.09153
ltoes -19.981
354
root 0.179219 17.3691 0.319501 4.49464 5.01488 -0.436942
lowerback 1.33187 -0.193937 -0.279836
upperback -0.0277867 -0.254486 1.05491
thorax -0.768831 -0.124151 1.24174
lowerneck -12.8849 -13.9486 -18.6073
upperneck 13.7452 -19.6444 21.0487
head 10.6669 -8.5832 7.36211
rclavicle 1.20016e-014 9.93923e-016
rhumerus -31.5934 33.2101 -100.003
rradius 63.1096
rwrist 10.3568
rhand 11.4348 16.5826
rfingers 7.12502
rthumb 36.4859 -9.61306
lclavicle 1.20016e-014 9.93923e-016
lhumerus -33.9679 -39.5199 108.068
lradius 85.1691
lwrist 12.1846
lhand 6.79739 23.7881
lfingers 7.12502
lthumb 32.0828 50.9774
rfemur -4.25043 9.29117 18.8598
rtibia 14.1059
rfoot -12.5924 -14.9825
rtoes -12.8148
lfemur -10.5546 -15.923 -16.5155
ltibia 20.9684
lfoot -14.521 6.8793
ltoes -20.281
355
root 0.204628 17.3633 0.301452 4.6604 5.7895 -0.4719
lowerback 1.37128 -0.463303 0.110878
upperback 0.00819351 -0.60771 1.03196
thorax -0.750018 -0.302368 1.00615
lowerneck -12.4843 -13.8612 -18.4216
upperneck 13.0517 -19.6106 21.578
head 10.3955 -8.56638 7.54075
rclavicle 7.82715e-015 1.09332e-014
rhumerus -31.8728 32.6171 -99.9607
rradius 61.9804
rwrist 11.7966
rhand 11.1791 15.9779
rfingers 7.12502
rthumb 36.2438 -10.2783
lclavicle 7.82715e-015 1.09332e-014
lhumerus -33.9231 -37.945 107.852
lradius 82.2863
lwrist 11.6054
lhand 6.97845 24.0852
lfingers 7.12502
lthumb 32.2552 51.2397
rfemur -4.65657 8.52315 18.8186
rtibia 14.5454
rfoot -12.8589 -14.948
rtoes -12.4438
lfemur -11.2277 -16.4542 -16.4001
ltibia 21.4153
lfoot -14.4803 6.80998
ltoes -20.868
356
root 0.20234 17.3554 0.284708 4.56109 5.74892 -0.433817
lowerback 1.64064 -0.466202 -0.166067
upperback 0.206343 -0.615612 1.13691
thorax -0.69395 -0.305987 1.27051
lowerneck -12.2533 -13.8102 -18.4917
upperneck 12.3636 -19.5972 22.3242
head 10.225 -8.54738 7.82748
rclavicle -6.23687e-015 1.15295e-014
rhumerus -31.9876 32.3307 -99.7379
rradius 60.8804
rwrist 13.1997
rhand 11.0726 15.2429
rfingers 7.12502
rthumb 36.143 -11.0384
lclavicle -6.23687e-015 1.15295e-014
lhumerus -33.5733 -36.2898 107.579
lradius 79.1481
lwrist 10.8813
lhand 7.11382 24.2113
lfingers 7.12502
lthumb 32.384 51.3394
rfemur -4.87963 8.57278 18.7688
rtibia 15.0443
rfoot -13.0292 -14.9786
rtoes -12.3715
lfemur -11.3521 -16.34 -16.4577
ltibia 21.773
lfoot -14.6102 6.56845
ltoes -20.1686
357
root 0.188859 17.3459 0.26616 4.42021 5.2197 -0.546028
lowerback 1.92829 -0.311152 -0.549631
upperback 0.46106 -0.415821 1.3489
thorax -0.594665 -0.206784 1.69968
lowerneck -12.2434 -13.8177 -18.6449
upperneck 11.8097 -19.6361 23.0557
head 10.1645 -8.54031 8.10294
rclavicle 7.35503e-015 2.38542e-014
rhumerus -32.015 32.2124 -99.4177
rradius 59.7478
rwrist 14.5948
rhand 10.2459 14.6464
rfingers 7.12502
rthumb 35.3595 -11.8249
lclavicle 7.35503e-015 2.38542e-014
lhumerus -32.7825 -34.482 107.271
lradius 75.4579
lwrist 10.2427
lhand 7.36597 24.5855
lfingers 7.12502
lthumb 32.624 51.6643
rfemur -5.18258 8.88887 18.8845
rtibia 15.6242
rfoot -13.1325 -14.8186
rtoes -12.718
lfemur -11.3542 -15.8164 -16.3792
ltibia 22.1278
lfoot -14.7784 6.41131
ltoes -19.3394
358
root 0.179574 17.3385 0.246348 4.45452 5.14539 -0.576099
lowerback 2.06462 -0.211693 -0.78925
upperback 0.563043 -0.288452 1.40425
thorax -0.569372 -0.143612 1.88844
lowerneck -11.7588 -13.8832 -18.7369
upperneck 11.1474 -19.8535 23.9281
head 10.0375 -8.64388 8.40259
rclavicle 1.2921e-014 -1.19271e-015
rhumerus -32.3081 31.864 -99.3577
rradius 58.4131
rwrist 16.5515
rhand 8.67696 14.0499
rfingers 7.12502
rthumb 33.8704 -12.7626
lclavicle 1.2921e-014 -1.19271e-015
lhumerus -32.0948 -32.9898 107.063
lradius 71.388
lwrist 9.60672
lhand 7.44786 25.3622
lfingers 7.12502
lthumb 32.7019 52.4249
rfemur -5.61715 8.90237 18.9218
rtibia 16.2089
rfoot -13.3556 -14.7761
rtoes -12.4505
lfemur -11.6564 -15.4961 -16.2808
ltibia 22.4769
lfoot -14.8791 6.06056
ltoes -19.0083
